<?xml version="1.0" encoding="UTF-8"?>
<svg id="Layer_1" data-name="Layer 1" xmlns="http://www.w3.org/2000/svg" viewBox="0 0 263.28 229.18">
  <path d="M2.25,192.13c-3.2,1.8-2.45,5.7-1.05,8.53,5.43,10.51,12.76,26.22,23.18,28.26,20.49.08,121.29.45,164.58.12,1.83-.01,6.55-.38,9.72-.8,9.6-1.26,19.12-9.71,23.41-17.98,10.94-19.89,22.82-46.65,33.45-63.16,2.21-4.04,11.46-14.29,6.07-17.92-1.61-.74-3.6-.66-5.35-.53-3.83.38-7.92,1.16-11.97,1.76-16.49,2.67-43.85,7.15-62.24,12.12-20.48,5.73-55.58,17.84-81.91,26.02-30.43,9.74-64.47,16.39-97.71,23.48l-.18.1Z"/>
  <path d="M35.28,158.5c0,5.26,2.1,10.02,5.5,13.52,9.28-2.05,18.52-4.19,27.56-6.48l4.99-1.45c.53-1.77.81-3.64.81-5.59,0-2.49-.49-4.87-1.34-7.06l33.83-21.01c3.56,4.19,8.87,6.86,14.8,6.86,7.19,0,13.46-3.92,16.82-9.73,5.55,2.25,14.27,5.86,22.55,9.29,4.08-1.28,7.95-2.47,11.55-3.54-17.05-7.11-26.42-10.98-31.64-13.07.1-.78.16-1.57.16-2.38,0-2.74-.57-5.34-1.59-7.7l27.62-17.15c3.45,3.31,8.1,5.36,13.24,5.41l3.76,31.71c2.43-.6,4.96-1.19,7.55-1.77l-3.72-31.39c7.07-2.91,12.05-9.85,12.05-17.97,0-10.73-8.7-19.43-19.43-19.43-3.93,0-7.59,1.18-10.65,3.19l-32.12-32.48c2.08-3.09,3.3-6.82,3.3-10.83,0-10.73-8.7-19.43-19.43-19.43s-19.43,8.7-19.43,19.43c0,2.7.55,5.28,1.55,7.61l-36.03,28.01c-3.42-3.01-7.9-4.85-12.82-4.85-10.73,0-19.43,8.7-19.43,19.43,0,9.41,6.69,17.26,15.58,19.05v50.76c-8.89,1.79-15.58,9.63-15.58,19.05ZM125.3,38.48c2.47-.5,4.76-1.47,6.8-2.8l32.12,32.48c-2.08,3.1-3.3,6.82-3.3,10.83,0,2.73.57,5.32,1.58,7.67l-27.63,17.16c-2.61-2.49-5.89-4.28-9.57-5.01v-60.33ZM102.9,123.67l-34.27,21.28c-.87-.89-1.83-1.71-2.85-2.42l21.87-44.18,16.27,11.13c-1.21,2.54-1.91,5.37-1.91,8.37,0,2.03.31,3.98.89,5.82ZM117.59,38.48v60.33c-3.42.69-6.51,2.29-9.02,4.52l-17.47-11.94,26.22-52.96c.09.02.18.04.27.06ZM72.2,61.2l35.75-27.8c.72.69,1.49,1.33,2.31,1.91l-25.58,51.68-12.61-8.63c1.32-2.62,2.08-5.58,2.08-8.72s-.71-5.89-1.95-8.45ZM58.57,88.69c3.29-.66,6.27-2.16,8.73-4.25l13.93,9.53-22.53,45.51s-.08-.02-.12-.03v-50.76Z"/>
</svg>